<svg width="141" height="31" viewBox="0 0 141 31" fill="none" xmlns="http://www.w3.org/2000/svg">
<g id="Group">
<path id="Vector" d="M0 17.1206C0.056304 17.0519 0.112608 16.949 0.197064 16.8118C0.28152 16.6745 0.365976 16.503 0.478584 16.3314C0.591192 16.2285 0.703801 16.0913 0.844561 15.9197C0.985321 15.7482 1.12608 15.508 1.29499 15.2678C1.3513 15.0963 1.43575 14.9247 1.52021 14.7188C1.60467 14.513 1.71727 14.3071 1.82988 14.0326C1.88619 13.7582 1.99879 13.4837 2.16771 13.1406C2.33662 12.7975 2.58999 12.4544 2.89966 12.0426C3.32194 11.4594 3.77237 10.8418 4.25096 10.1899C4.50432 9.74386 4.75769 9.43506 5.03921 9.2292C5.32073 9.02334 5.6304 8.92041 5.96823 8.92041C6.19345 8.92041 6.36236 9.02334 6.47497 9.26351C6.58757 9.50368 6.64388 9.84679 6.64388 10.3271C6.64388 10.4987 6.55942 10.7732 6.36236 11.1163C6.16529 11.4937 5.88377 11.9397 5.48964 12.523C5.23628 12.8661 4.98291 13.2435 4.72954 13.5866C4.47617 13.9297 4.19465 14.3071 3.94128 14.6502C3.82868 14.7875 3.68791 14.9247 3.57531 15.0963C3.43455 15.2678 3.29379 15.4394 3.15303 15.6109C3.09672 15.8168 3.06857 16.0226 3.01227 16.2971C3.01227 16.6745 3.04042 16.9833 3.06857 17.2578C3.09672 17.5323 3.15303 17.7725 3.23748 17.944C3.26563 18.0126 3.35009 18.1499 3.49085 18.39C3.63161 18.6302 3.80052 18.939 4.02574 19.3164C4.08204 19.4194 4.13835 19.5223 4.2228 19.5909C4.30726 19.6938 4.39172 19.7968 4.50432 19.8654C4.61693 19.7968 4.84215 19.5566 5.17997 19.1106C5.5178 18.6645 5.96823 18.0126 6.55942 17.1892L7.00985 18.5273C6.95355 18.5959 6.84094 18.7675 6.70018 19.0076C6.55942 19.2478 6.36236 19.5566 6.13714 19.934C5.88377 20.3457 5.6304 20.7575 5.37704 21.2378C5.37704 21.3407 5.40519 21.4437 5.48964 21.5809C5.5741 21.7181 5.65856 21.8554 5.77116 21.9926C5.96823 22.2671 6.13714 22.6445 6.30605 23.1249C6.44681 23.5709 6.55942 24.1542 6.64388 24.8061C6.64388 24.8404 6.61573 24.9433 6.61573 25.0462C6.61573 25.1492 6.58757 25.2864 6.58757 25.3893C6.50312 26.4873 5.94008 27.5852 4.9266 28.6831C3.91313 29.7811 2.95596 30.33 2.0551 30.33C1.63282 30.33 1.29499 30.2614 1.06978 30.1242C0.816409 29.9869 0.647497 29.8154 0.534888 29.5409C0.506736 29.4036 0.450432 29.1635 0.450432 28.8204C0.42228 28.443 0.42228 27.9626 0.42228 27.3793C0.42228 27.3107 0.450432 27.2078 0.478584 27.0362C0.534888 26.8647 0.591192 26.6245 0.703801 26.35C0.760105 26.1442 0.844561 25.9726 0.929017 25.7668C1.01347 25.5609 1.12608 25.355 1.23869 25.1149C1.3513 24.909 1.46391 24.7031 1.57651 24.5316C1.68912 24.3257 1.80173 24.1542 1.91434 23.9483C2.16771 23.6052 2.39292 23.3307 2.58999 23.0562C2.73075 22.8847 2.84335 22.7131 2.92781 22.5416C3.01227 22.37 3.04042 22.2328 3.04042 22.0956C2.78705 21.6495 2.50553 21.2035 2.25216 20.7918C1.97064 20.3457 1.74543 19.934 1.57651 19.488C1.4076 19.0419 1.29499 18.6302 1.23869 18.1499C1.23869 18.0813 1.21054 18.0126 1.15423 17.8754C0.985321 18.0813 0.788257 18.2871 0.619344 18.5273C0.591192 18.39 0.534888 18.2185 0.450432 18.0126C0.225216 17.7038 0.112608 17.4294 0 17.1206ZM3.85683 23.1592C3.80052 23.1592 3.68791 23.2964 3.519 23.5709C3.35009 23.8454 3.12487 24.2228 2.84335 24.7718C2.67444 25.0805 2.50553 25.4237 2.33662 25.7324C2.16771 26.0412 1.99879 26.3843 1.82988 26.6931C1.77358 26.7961 1.68912 27.0362 1.54836 27.448C1.43575 27.8254 1.37945 28.0999 1.37945 28.2028C1.37945 28.3743 1.4076 28.5116 1.49206 28.6145C1.60467 28.6488 1.71727 28.7174 1.88619 28.7174C2.47738 28.7174 3.12487 28.3057 3.74422 27.5166C4.39172 26.7274 4.70139 25.9383 4.70139 25.2178C4.70139 25.0806 4.67324 24.8747 4.61693 24.6688C4.56063 24.463 4.50432 24.2228 4.41987 23.9826C4.30726 23.7081 4.2228 23.5023 4.13835 23.365C4.05389 23.2278 3.96943 23.1592 3.85683 23.1592Z" fill="#040000"/>
<path id="Vector_2" d="M6.8691 16.5032L7.93888 15.6454C7.96703 15.6111 8.02334 15.5425 8.07964 15.4396C8.13594 15.371 8.19225 15.2337 8.2767 15.0965C8.33301 14.9592 8.41746 14.8563 8.50192 14.7877C8.58638 14.6847 8.69898 14.6161 8.81159 14.5475C8.8679 14.4446 8.95235 14.3416 9.09311 14.2044C9.20572 14.0672 9.34648 13.8956 9.54355 13.6897C9.628 13.6211 9.74061 13.5525 9.88137 13.4496C10.0221 13.3466 10.1629 13.2094 10.3036 13.0035C11.0075 12.1801 11.6549 11.5625 12.1898 11.1508C12.7247 10.7391 13.1752 10.5332 13.5411 10.5332C13.7382 10.5332 13.9071 10.6018 13.9916 10.7048C14.076 10.8077 14.1323 10.9449 14.1323 11.1508C14.1323 11.3566 14.1042 11.5282 14.0479 11.6654C13.9916 11.8027 13.9071 11.9399 13.7663 12.0429C13.5693 12.2144 13.3441 12.4203 13.1189 12.6261C13.0062 12.832 12.8373 13.0379 12.6684 13.278C12.4995 13.5182 12.2743 13.7241 12.0209 13.9299C11.9365 14.0672 11.8802 14.1701 11.8239 14.273C11.7957 14.3073 11.7113 14.4103 11.5986 14.5475C11.486 14.6847 11.3453 14.822 11.1764 14.9935C11.0919 15.1994 10.923 15.4739 10.6696 15.817C10.4163 16.1601 10.0503 16.5375 9.628 17.0178C9.5717 17.0865 9.48724 17.2237 9.34648 17.4639C9.20572 17.7041 9.00866 18.0128 8.78344 18.4246L8.8679 18.5618C9.03681 18.4932 9.23387 18.3903 9.40279 18.2187C9.59985 18.0472 9.79691 17.8413 10.0221 17.5668C10.2755 17.258 10.5007 17.0178 10.6696 16.8463C10.8385 16.6747 10.9511 16.5375 11.0356 16.4689C11.0919 16.4346 11.1482 16.4003 11.2045 16.366C11.2608 16.3316 11.3171 16.263 11.4016 16.2287C11.7676 15.7141 12.1054 15.3023 12.4151 15.0622C12.7247 14.822 13.0062 14.6847 13.2878 14.6847C13.4567 14.6847 13.5693 14.7534 13.6537 14.9249C13.7382 15.0965 13.7945 15.3366 13.7945 15.6454C13.7663 16.1258 13.7663 16.5718 13.7663 17.0178C13.7663 17.3266 13.8227 17.6011 13.9634 17.8413C14.1042 18.0815 14.3012 18.2187 14.5265 18.2187C14.6109 18.2187 14.6672 18.1844 14.7235 18.1501C14.7798 18.1158 14.8643 18.0472 14.9206 17.9785C14.9769 17.8756 15.0332 17.807 15.0895 17.7384C15.1458 17.6697 15.2021 17.6011 15.2584 17.4982C15.2866 17.4639 15.3429 17.4296 15.3992 17.3953C15.4555 17.3609 15.5118 17.2923 15.5681 17.2237C15.6807 17.4982 15.7651 17.7727 15.8496 17.9785C15.9341 18.1844 15.9904 18.3903 16.0185 18.5618C15.8496 18.7677 15.6525 18.9735 15.4836 19.1794C15.3147 19.3853 15.1176 19.5911 14.9206 19.797C14.6954 20.0028 14.4701 20.1744 14.2449 20.2773C14.0197 20.3803 13.7945 20.4489 13.5974 20.4489C13.0907 20.4489 12.6966 20.2773 12.4151 19.9342C12.1335 19.5911 11.9928 19.0422 11.9365 18.3216C11.9365 18.2187 11.9365 18.1501 11.9083 18.0472C11.8802 17.9442 11.852 17.8756 11.7957 17.7727C11.7676 17.807 11.7113 17.8756 11.6549 17.9099C11.5986 17.9785 11.5423 18.0472 11.486 18.1158C11.3734 18.2187 11.2608 18.3216 11.0919 18.4589C10.9511 18.5961 10.7541 18.7677 10.557 18.9735C10.2755 19.3166 10.0503 19.5911 9.85322 19.8313C9.65615 20.0371 9.54354 20.2087 9.45909 20.3116C9.29018 20.4832 9.12127 20.6204 8.9242 20.792C8.72714 20.9635 8.47377 21.1351 8.2204 21.3066C8.05149 21.4096 7.91073 21.5125 7.79812 21.5468C7.68551 21.6154 7.60106 21.6497 7.54475 21.6497C7.17878 21.6497 6.89726 21.5468 6.70019 21.3066C6.53128 21.0665 6.41867 20.7234 6.41867 20.2773C6.41867 20.0028 6.47497 19.7627 6.55943 19.5225C6.64389 19.2823 6.78465 19.0765 6.95356 18.8363C6.98171 18.699 6.98171 18.5961 6.98171 18.5275C6.98171 18.4932 6.98171 18.4246 6.95356 18.3903C6.92541 18.3216 6.89726 18.2873 6.8691 18.2187C6.8128 18.0815 6.75649 17.9442 6.70019 17.7727C6.64389 17.6011 6.58758 17.4296 6.50313 17.2237C6.53128 17.1894 6.58758 17.1208 6.64389 17.0178C6.70019 16.7777 6.78465 16.6404 6.8691 16.5032Z" fill="#040000"/>
<path id="Vector_3" d="M15.5399 17.1206C15.6244 17.0176 15.6807 16.9147 15.7651 16.7775C15.8496 16.6402 15.934 16.503 16.0467 16.3314L16.8349 15.508C16.8631 15.4737 16.8912 15.4394 16.8912 15.405C16.8912 15.3707 16.8912 15.3021 16.8912 15.1992C16.8912 15.0619 16.8631 14.959 16.8631 14.8904C16.8631 14.6845 16.8912 14.3071 16.9757 13.7925C17.0601 13.2778 17.1164 12.969 17.1727 12.8661L17.0883 12.5916C17.2009 11.9397 17.3416 11.2535 17.5106 10.4987C17.7076 9.74385 17.9047 8.9204 18.1299 8.02833C18.2144 7.89109 18.2988 7.68523 18.3833 7.44506C18.4677 7.20489 18.5803 6.9304 18.6648 6.65592C18.8056 6.14127 18.9745 5.62661 19.1997 5.07765C19.4249 4.52868 19.6783 3.97972 19.9316 3.39644C20.2976 2.64162 20.6354 2.05834 20.917 1.68093C21.1985 1.30352 21.4518 1.09766 21.6771 1.09766C22.1275 1.09766 22.4372 1.20059 22.6061 1.40645C22.8031 1.61231 22.8876 1.98972 22.8876 2.60731C22.8876 2.74455 22.8594 2.98472 22.8313 3.32782C22.775 3.63662 22.775 3.87679 22.775 4.04834C22.775 4.21989 22.7187 4.42575 22.6342 4.73455C22.5498 5.04334 22.4935 5.31782 22.4935 5.55799C22.4935 5.62661 22.4653 5.69523 22.4372 5.79816V6.00403C22.409 6.14127 22.3527 6.31282 22.2964 6.48437C22.2401 6.69023 22.1556 6.89609 22.043 7.17058C21.9867 7.41075 21.9304 7.68523 21.8178 7.99402C21.7334 8.30281 21.6208 8.64592 21.5081 9.02333C21.4518 9.12626 21.3955 9.22919 21.3392 9.36643C21.2829 9.50367 21.1985 9.67523 21.114 9.84678C21.0859 9.98402 21.0577 10.1213 21.0014 10.2928C20.9451 10.4644 20.8606 10.6359 20.7762 10.8761C20.7199 10.979 20.6636 11.1163 20.5791 11.2535C20.4947 11.3907 20.4102 11.5623 20.2976 11.7682C20.2413 11.8711 20.2132 11.974 20.1568 12.1113C20.1005 12.2485 20.0442 12.42 19.9598 12.5916C19.8753 12.7632 19.7627 12.969 19.622 13.2092C19.4812 13.4494 19.3123 13.7238 19.1434 14.0669C18.89 14.5816 18.6366 15.0962 18.3833 15.5766C18.3833 16.503 18.524 17.2235 18.8337 17.6695C19.1434 18.1499 19.5938 18.39 20.185 18.39C20.2132 18.39 20.3539 18.3557 20.551 18.2871C20.748 18.2185 21.0296 18.1156 21.3674 17.9783C21.48 17.9097 21.5926 17.8068 21.7334 17.6695C21.8741 17.5323 22.043 17.3607 22.2119 17.1892L22.6624 18.5273C22.4653 18.7331 22.2401 18.9733 22.043 19.2135C21.846 19.4537 21.6208 19.6595 21.4237 19.8997C21.1703 20.1399 20.9451 20.3457 20.6917 20.483C20.4384 20.6202 20.185 20.6888 19.9598 20.6888C19.8472 20.6888 19.6501 20.6888 19.3686 20.6545C19.1152 20.6202 18.9182 20.6202 18.7774 20.6202C18.327 20.6202 17.961 20.4143 17.6795 19.9683C17.398 19.5223 17.2009 18.9047 17.0601 18.0126C17.032 17.9097 17.032 17.8411 17.0038 17.7724C16.9757 17.7038 16.9194 17.6352 16.8631 17.5323C16.7505 17.6695 16.6378 17.8068 16.4971 17.9783C16.3563 18.1499 16.1874 18.3557 15.9903 18.5616L15.5399 17.1206ZM21.1703 5.83247L21.0859 5.76385C20.6354 6.27851 20.3258 6.75885 20.1005 7.2392C19.8753 7.68523 19.7627 8.13126 19.7627 8.5773C19.7627 8.64592 19.7346 8.74885 19.6783 8.9204C19.622 9.09195 19.5375 9.29781 19.453 9.53798C19.3404 9.84678 19.1997 10.1556 19.0589 10.4987C18.9182 11.0476 18.8056 11.4594 18.7211 11.8025C18.6366 12.1456 18.6085 12.3857 18.6085 12.523L18.6929 12.6259C18.7774 12.6259 18.8619 12.523 18.9463 12.3514C19.0308 12.1799 19.1715 11.9397 19.3123 11.6309C19.3686 11.4594 19.453 11.2535 19.5938 11.0133C19.7064 10.7732 19.8472 10.4987 19.9879 10.1899C20.1005 9.98402 20.3258 9.43505 20.5791 8.5773C20.8606 7.71954 21.0014 7.13626 21.0296 6.89609C21.0296 6.69023 21.0577 6.51868 21.0859 6.31282C21.114 6.10696 21.1422 6.03834 21.1703 5.83247Z" fill="#040000"/>
<path id="Vector_4" d="M22.2119 17.1206C22.2964 17.0176 22.3527 16.9147 22.4372 16.7775C22.5216 16.6402 22.6061 16.503 22.7187 16.3314L23.5069 15.508C23.5351 15.4737 23.5632 15.4394 23.5632 15.405C23.5632 15.3707 23.5632 15.3021 23.5632 15.1992C23.5632 15.0619 23.5351 14.959 23.5351 14.8904C23.5351 14.6845 23.5632 14.3071 23.6477 13.7925C23.7322 13.2778 23.7885 12.969 23.8448 12.8661L23.7603 12.5916C23.8729 11.9397 24.0137 11.2535 24.1826 10.4987C24.3797 9.74385 24.5767 8.9204 24.8019 8.02833C24.8864 7.89109 24.9708 7.68523 25.0553 7.44506C25.1398 7.20489 25.2524 6.9304 25.3368 6.65592C25.4776 6.14127 25.6465 5.62661 25.8717 5.07765C26.0969 4.52868 26.3503 3.97972 26.6037 3.39644C26.9696 2.64162 27.3075 2.05834 27.589 1.68093C27.8705 1.30352 28.1239 1.09766 28.3491 1.09766C28.7995 1.09766 29.1092 1.20059 29.2781 1.40645C29.447 1.61231 29.5315 2.02403 29.5315 2.60731C29.5315 2.74455 29.5033 2.98472 29.4752 3.32782C29.4189 3.63662 29.4189 3.87679 29.4189 4.04834C29.4189 4.21989 29.3626 4.42575 29.2781 4.73455C29.1936 5.04334 29.1373 5.31782 29.1373 5.55799C29.1373 5.62661 29.1092 5.69523 29.081 5.79816V6.00403C29.0529 6.14127 28.9966 6.31282 28.9403 6.48437C28.884 6.69023 28.7995 6.89609 28.6869 7.17058C28.6306 7.41075 28.5743 7.68523 28.4617 7.99402C28.3772 8.30281 28.2646 8.64592 28.152 9.02333C28.0957 9.12626 28.0394 9.22919 27.9831 9.36643C27.955 9.50367 27.8705 9.67523 27.786 9.84678C27.7579 9.98402 27.7297 10.1213 27.6734 10.2928C27.6171 10.4644 27.5327 10.6359 27.4482 10.8761C27.3919 10.979 27.3356 11.1163 27.2512 11.2535C27.1667 11.3907 27.0822 11.5623 26.9696 11.7682C26.9133 11.8711 26.8852 11.974 26.8289 12.1113C26.7444 12.2485 26.6881 12.3857 26.6318 12.5916C26.5474 12.7632 26.4347 12.969 26.294 13.2092C26.1532 13.4494 25.9843 13.7238 25.8154 14.0669C25.562 14.5816 25.3087 15.0962 25.0553 15.5766C25.0553 16.503 25.1961 17.2235 25.5057 17.6695C25.8154 18.1499 26.2658 18.39 26.857 18.39C26.8852 18.39 27.0259 18.3557 27.223 18.2871C27.4201 18.2185 27.7016 18.1156 28.0394 17.9783C28.152 17.9097 28.2646 17.8068 28.4054 17.6695C28.5461 17.5323 28.7151 17.3607 28.884 17.1892L29.3344 18.5273C29.1373 18.7331 28.9121 18.9733 28.7151 19.2135C28.518 19.4537 28.2928 19.6595 28.0957 19.8997C27.8423 20.1399 27.6171 20.3457 27.3638 20.483C27.1104 20.6202 26.857 20.6888 26.6318 20.6888C26.5192 20.6888 26.3221 20.6888 26.0406 20.6545C25.7873 20.6202 25.5902 20.6202 25.4494 20.6202C24.999 20.6202 24.633 20.4143 24.3515 19.9683C24.07 19.5223 23.8729 18.9047 23.7322 18.0126C23.704 17.9097 23.704 17.8411 23.6758 17.7724C23.6477 17.7038 23.5914 17.6352 23.5351 17.5323C23.4225 17.6695 23.3099 17.8068 23.1691 17.9783C23.0284 18.1499 22.8594 18.3557 22.6624 18.5616L22.2119 17.1206ZM27.8142 5.83247L27.7297 5.76385C27.2793 6.27851 26.9696 6.75885 26.7444 7.2392C26.5192 7.68523 26.4066 8.13126 26.4066 8.5773C26.4066 8.64592 26.3784 8.74885 26.3221 8.9204C26.2658 9.09195 26.1814 9.29781 26.0969 9.53798C25.9843 9.84678 25.8436 10.1556 25.7028 10.4987C25.562 11.0476 25.4494 11.4594 25.365 11.8025C25.2805 12.1456 25.2524 12.3857 25.2524 12.523L25.3368 12.6259C25.4213 12.6259 25.5057 12.523 25.5902 12.3514C25.7028 12.1799 25.8154 11.9397 25.9562 11.6309C26.0125 11.4594 26.0969 11.2535 26.2377 11.0133C26.3503 10.7732 26.4911 10.4987 26.6318 10.1899C26.7444 9.98402 26.9696 9.43505 27.223 8.5773C27.5045 7.71954 27.6453 7.13626 27.6734 6.89609C27.6734 6.69023 27.7016 6.51868 27.7297 6.31282C27.7579 6.10696 27.786 6.03834 27.8142 5.83247Z" fill="#040000"/>
<path id="Vector_5" d="M28.8558 17.1209C28.9403 16.915 29.0811 16.7092 29.2218 16.5033C29.3626 16.2974 29.5596 16.0916 29.7849 15.8514C29.813 15.6455 29.8412 15.474 29.8693 15.2681C29.8975 15.0966 29.8975 14.8907 29.9256 14.6849C29.9538 14.5476 29.9819 14.3761 30.0382 14.2045C30.0945 14.033 30.1508 13.8271 30.2071 13.6212C30.2916 13.4154 30.376 13.1409 30.4887 12.8321C30.6013 12.5233 30.7702 12.1459 30.9672 11.7685C31.1361 11.5626 31.3051 11.3224 31.474 11.048C31.6429 10.7735 31.8399 10.5333 32.0089 10.2588C32.0933 10.1559 32.1778 10.0873 32.2904 10.0187C32.403 9.95004 32.4874 9.84711 32.6001 9.74418C32.6845 9.70986 32.7971 9.67555 32.9097 9.64124C33.0223 9.60693 33.1631 9.60693 33.3039 9.60693C33.5009 9.60693 33.6698 9.64124 33.7824 9.67555C33.895 9.70986 34.0077 9.8128 34.0921 9.91573C34.1484 9.98435 34.2047 10.1216 34.261 10.2588C34.3173 10.3961 34.3736 10.6019 34.4018 10.8078C34.4299 11.0137 34.4581 11.2195 34.4862 11.4254C34.4862 11.3568 34.4862 11.3911 34.4581 11.494C34.4299 11.5969 34.4018 11.7685 34.3455 12.0087L34.2329 12.4547C34.1203 12.9007 33.8669 13.4497 33.5009 14.033C33.1349 14.6162 32.6001 15.3368 31.9526 16.0916C31.8963 16.1602 31.8399 16.2288 31.8118 16.3317C31.7836 16.4347 31.7555 16.5376 31.7555 16.6405C31.7555 16.8464 31.7836 17.018 31.8399 17.1552C31.8963 17.2924 31.9807 17.4297 32.0933 17.4983C32.1496 17.5669 32.2622 17.6012 32.403 17.6698C32.5437 17.7385 32.7127 17.7728 32.8816 17.8414C33.1912 17.8071 33.4728 17.7385 33.7261 17.6698C33.9795 17.5669 34.2047 17.464 34.4018 17.3267C34.4299 17.2924 34.5144 17.2581 34.5988 17.1895C34.6833 17.1209 34.7678 17.0523 34.8522 16.9836C34.9648 17.2581 35.0493 17.4983 35.1337 17.7385C35.2182 17.9443 35.2745 18.1502 35.3308 18.3217C34.8804 18.8707 34.4862 19.2481 34.1203 19.5226C33.7543 19.7971 33.4165 19.9343 33.1068 19.9343C32.9942 20.0373 32.8253 20.1059 32.6845 20.1402C32.5156 20.1745 32.3467 20.2088 32.1215 20.2088C31.8399 20.2088 31.5866 20.1402 31.3614 20.0373C31.1361 19.9343 30.9391 19.7628 30.7983 19.5912C30.7139 19.4883 30.6294 19.3511 30.5731 19.1795C30.4887 19.008 30.4042 18.7678 30.3197 18.5276C30.2353 18.3217 30.179 18.1502 30.1227 18.0473C30.0664 17.9443 29.9819 17.91 29.8975 17.91C29.8412 17.91 29.7567 17.9443 29.6722 18.013C29.5878 18.0816 29.5033 18.1845 29.4189 18.3217C29.3907 18.1845 29.3344 18.013 29.25 17.8071C29.0811 17.7042 28.9684 17.4297 28.8558 17.1209ZM32.6282 12.4547C32.4593 12.4547 32.2341 12.7292 31.9244 13.2781C31.6429 13.8271 31.5021 14.2388 31.5021 14.479C31.5021 14.5476 31.5021 14.5819 31.5303 14.6162C31.5584 14.6505 31.5866 14.6505 31.6429 14.6505C31.7273 14.6505 31.8118 14.5819 31.8681 14.479C31.9244 14.3761 31.9807 14.2731 32.0089 14.1702C32.0933 14.0673 32.1778 13.9643 32.2622 13.8614C32.3467 13.7585 32.4311 13.6555 32.5156 13.5526C32.6001 13.4154 32.6845 13.2781 32.7408 13.1409C32.7971 13.0037 32.8253 12.8664 32.8253 12.7292C32.8253 12.6262 32.8253 12.5576 32.7971 12.5233C32.7127 12.489 32.6845 12.4547 32.6282 12.4547Z" fill="#040000"/>
<path id="Vector_6" d="M34.7678 17.1206C34.8804 16.9147 35.0211 16.7088 35.1337 16.503C35.6968 15.9197 36.1754 15.3707 36.5413 14.8561C36.9073 14.3414 37.1607 13.8268 37.3296 13.3808L37.217 12.6945C37.3296 12.4544 37.583 12.1799 37.9771 11.8368C38.3712 11.528 38.709 11.3564 38.9624 11.3564C39.2158 11.3564 39.4691 11.4594 39.6381 11.6309C39.8351 11.8368 40.004 12.0083 40.1729 12.2485C40.2574 12.3171 40.3137 12.3514 40.37 12.4201C40.6797 12.6945 40.9331 13.1063 41.0738 13.6209C41.2427 14.1356 41.299 14.7532 41.299 15.4737C41.299 15.8511 41.1864 16.4001 40.9331 17.1206C40.6797 17.8411 40.5671 18.3557 40.5671 18.7332C40.5671 18.7675 40.5671 18.8361 40.5952 18.8361C40.6234 18.8704 40.6515 18.8704 40.7078 18.8704C40.8204 18.8704 40.9331 18.8018 41.0738 18.6988C41.2146 18.5959 41.3553 18.4244 41.5242 18.2528C41.9465 17.7382 42.1999 17.4637 42.2844 17.4294C42.3688 17.3607 42.4814 17.2921 42.594 17.1549C42.6503 17.3607 42.7348 17.5666 42.8192 17.7725C42.9037 17.9783 42.9882 18.2185 43.0726 18.493C42.9882 18.5616 42.9318 18.6645 42.8192 18.7675C42.7348 18.8704 42.6222 19.0076 42.4814 19.1106C42.228 19.3507 41.8621 19.6252 41.4398 19.9683C41.0175 20.3114 40.5108 20.6888 39.8914 21.1349C39.7225 21.2721 39.5536 21.375 39.3565 21.4437C39.0187 21.4437 38.7653 21.375 38.6246 21.2721C38.4557 21.1692 38.3712 20.9633 38.3712 20.6888C38.3712 20.5859 38.3994 20.4487 38.4275 20.3114C38.4557 20.1742 38.512 20.0369 38.5683 19.8654C38.6246 19.7282 38.6527 19.6252 38.709 19.488C38.7653 19.3507 38.8217 19.2135 38.8498 19.0763C39.0187 18.4587 39.1595 17.9097 39.2439 17.3951C39.3284 16.8804 39.3847 16.4001 39.3847 15.9883C39.3847 15.4737 39.3284 15.0963 39.1876 14.8218C39.0469 14.5473 38.8498 14.4101 38.5964 14.3757C38.4275 14.4787 38.2305 14.6502 38.0334 14.8561C37.8363 15.062 37.6111 15.3364 37.414 15.6452C37.1888 15.9883 36.9918 16.2628 36.7947 16.503C36.6258 16.7088 36.4569 16.8804 36.3443 16.949C36.2598 17.0863 36.1472 17.2578 36.0065 17.4294C35.8375 17.6009 35.6405 17.8068 35.3871 18.0126C35.359 18.0469 35.359 18.1156 35.3027 18.1842C35.2745 18.2528 35.2182 18.3557 35.1619 18.4587C35.1056 18.2528 35.0211 18.0126 34.9367 17.8068C34.9648 17.5666 34.8804 17.3607 34.7678 17.1206Z" fill="#040000"/>
<path id="Vector_7" d="M42.6503 17.1206C42.8192 16.8804 43.1008 16.6059 43.4949 16.2971C43.889 15.9883 44.1424 15.7138 44.3395 15.508C44.4521 15.3364 44.621 15.1306 44.7899 14.8904C44.9869 14.6502 45.2122 14.3414 45.4655 14.0326C45.6344 13.8611 45.7752 13.7238 45.916 13.6209C46.0567 13.518 46.2256 13.4837 46.3664 13.4837C46.5635 13.4837 46.7042 13.5523 46.8168 13.6552C46.9294 13.7581 46.9857 13.964 46.9857 14.2042C46.9857 14.5816 46.8731 15.1649 46.6198 16.0226C46.3946 16.8461 46.2538 17.498 46.2538 17.9097C46.2538 18.0126 46.2819 18.0812 46.3101 18.1156C46.3382 18.1499 46.3945 18.1842 46.4227 18.1842H46.479C46.6198 18.0812 46.8168 17.9097 47.0139 17.7381C47.211 17.5666 47.4362 17.3264 47.6895 17.0862C47.8866 16.8461 48.14 16.5716 48.4496 16.1942C48.7593 15.8168 49.0971 15.405 49.5194 14.8904C49.6883 14.7531 49.8572 14.5473 50.0543 14.3071C50.2514 14.0669 50.4766 13.7925 50.73 13.4494C50.8426 13.2778 50.9833 13.1406 51.1522 13.0376C51.3493 12.9347 51.5745 12.9004 51.8279 12.9004C51.9968 12.9004 52.1376 12.9347 52.222 13.0376C52.3065 13.1063 52.3628 13.2435 52.3628 13.415C52.3628 13.4837 52.3628 13.5523 52.3346 13.6209C52.3346 13.6895 52.3065 13.7581 52.3065 13.7925C52.2502 14.0669 52.1657 14.4444 52.0531 14.8561C51.9405 15.2678 51.7997 15.7481 51.659 16.3314C51.5182 16.6745 51.3775 17.1206 51.2367 17.6009C51.0959 18.0812 50.927 18.6302 50.7581 19.2478L50.8426 19.385C51.0115 19.2821 51.2648 19.0762 51.5745 18.6988C51.9123 18.3557 52.3065 17.8754 52.8132 17.2578L53.2918 18.5959C53.2355 18.6645 53.151 18.7674 53.0666 18.8704C52.9821 18.9733 52.8695 19.1105 52.7006 19.2135C51.856 19.934 51.1522 20.6545 50.5329 21.375C49.9417 22.0955 49.4631 22.7818 49.0971 23.5023C48.5623 24.5659 48.14 25.4236 47.774 26.0755C47.4362 26.7274 47.1828 27.2078 47.0139 27.4823C46.479 28.34 45.9441 28.9919 45.4655 29.4379C44.9869 29.8497 44.5084 30.0555 44.0298 30.0555C43.8609 30.0555 43.7201 30.0212 43.6638 29.9183C43.5793 29.8154 43.5512 29.7124 43.5512 29.5066C43.5512 29.4036 43.5793 29.3007 43.6075 29.1635C43.6356 29.0262 43.7201 28.8547 43.8327 28.7174C43.9735 28.4429 44.1142 28.2028 44.255 27.9283L44.5928 27.5509C44.621 27.4136 44.6491 27.345 44.6491 27.2764C44.6773 27.2421 44.7336 27.1735 44.7899 27.1048C44.8462 27.0362 44.9306 26.9676 44.9869 26.8647C45.0433 26.6931 45.184 26.4186 45.4374 26.0069C45.6907 25.5952 46.0004 25.1148 46.4509 24.463C46.7605 24.0169 47.0702 23.6052 47.3236 23.2278C47.5769 22.8847 47.8303 22.5759 47.9992 22.3014C48.0274 22.2328 48.0555 22.1299 48.1118 22.0269C48.14 21.924 48.1681 21.8211 48.1963 21.7181C48.3089 21.478 48.4215 21.1692 48.5341 20.8261C48.6467 20.483 48.8156 20.0712 48.9845 19.5909C49.069 19.3164 49.1253 19.0076 49.1816 18.6302C49.2379 18.2871 49.2942 17.8754 49.3224 17.4637C49.2942 17.4293 49.2942 17.3607 49.2942 17.3264C49.2942 17.2578 49.2661 17.1892 49.2379 17.0519C49.0971 17.1549 48.9282 17.2578 48.7593 17.4293C48.5904 17.6009 48.4215 17.8068 48.2244 18.0469C47.9711 18.4587 47.6895 18.8018 47.4362 19.0762C47.1828 19.3507 46.9013 19.5566 46.6479 19.6938C46.479 20.1055 46.2538 20.4143 45.9723 20.6202C45.6907 20.8261 45.3811 20.929 45.0433 20.929C44.7899 20.929 44.5928 20.8604 44.4521 20.7231C44.3113 20.5859 44.255 20.3457 44.255 20.0369C44.255 19.9683 44.255 19.8997 44.2831 19.8311C44.2831 19.7281 44.3113 19.6595 44.3395 19.5223C44.3113 19.4193 44.255 19.2821 44.2268 19.1105C44.255 18.939 44.2831 18.7674 44.3113 18.5616C44.3113 18.2871 44.2831 18.0469 44.255 17.9097C44.2268 17.7724 44.1705 17.7038 44.0861 17.7038L44.0298 17.7381C43.9453 17.8068 43.8327 17.944 43.6638 18.0812C43.4949 18.2185 43.326 18.4243 43.1008 18.6302C43.0726 18.493 43.0163 18.3557 42.96 18.1842C42.9037 18.0126 42.8474 17.8068 42.7911 17.5666C42.7629 17.498 42.7629 17.4637 42.7348 17.395C42.7066 17.1892 42.6785 17.1549 42.6503 17.1206Z" fill="#040000"/>
<path id="Vector_8" d="M60.8084 14.6505C60.8084 14.4446 60.7802 14.1358 60.6958 13.6898C60.6113 13.2438 60.5832 12.935 60.5832 12.7291C60.5832 12.5919 60.5832 12.4203 60.6113 12.1458C60.6395 11.8714 60.6395 11.6998 60.6395 11.5626C60.6395 11.2195 60.6113 10.6705 60.5832 9.94998C60.555 9.22946 60.5269 8.71481 60.5269 8.3374C60.5269 7.75412 60.555 6.96499 60.6113 6.03861C60.6676 5.11223 60.7521 4.0143 60.8365 2.74482C60.8928 2.29879 60.9773 1.92138 61.0899 1.6812C61.2025 1.44103 61.3714 1.3381 61.5685 1.3381C61.6529 1.3381 61.7092 1.40672 61.7655 1.50965C61.8218 1.61258 61.9063 1.78413 61.9908 2.02431C62.1597 2.23017 62.3567 2.43603 62.5257 2.60758C62.6664 2.74482 62.779 2.95068 62.8353 3.19086C62.9198 3.43103 62.9479 3.6712 62.9479 3.97999C62.9479 4.25447 62.8916 4.6662 62.8072 5.18085C62.7227 5.69551 62.6664 6.07292 62.6664 6.3474C62.6664 6.86205 62.6664 7.27378 62.6383 7.61688C62.6101 7.95998 62.582 8.23447 62.5257 8.40602L62.3849 8.85205C62.413 9.12653 62.4412 9.46964 62.4693 9.81274C62.4412 10.3617 62.4412 10.945 62.413 11.5283C62.413 12.1115 62.4412 12.7291 62.5257 13.3467C62.6101 13.9643 62.7227 14.5819 62.8353 15.1995C63.0324 16.0572 63.2576 16.6748 63.511 17.0865C63.7925 17.4982 64.074 17.7384 64.4118 17.7384C64.5807 17.7384 64.7497 17.7041 64.8904 17.6012C65.0312 17.4982 65.1719 17.361 65.3127 17.1208C65.4253 16.9493 65.5098 16.7777 65.5942 16.6062C65.6787 16.4346 65.7913 16.2631 65.8757 16.0915C65.9883 15.9543 66.101 15.7484 66.2136 15.5082C66.3262 15.2681 66.4669 14.9936 66.6077 14.6848C66.7485 14.1015 66.8892 13.5182 67.0581 12.935C67.227 12.3517 67.3959 11.7684 67.5649 11.1508C67.593 10.945 67.6493 10.7048 67.7056 10.396C67.7619 10.0872 67.8182 9.74412 67.9027 9.36671C68.0434 8.88636 68.2124 8.23447 68.3531 7.37671C68.4939 6.51895 68.6628 5.48964 68.8317 4.28878C68.888 4.08292 68.9725 3.84275 69.0569 3.56827C69.1414 3.25948 69.254 2.91637 69.3666 2.53896C69.3947 2.40172 69.451 2.16155 69.5355 1.85275C69.62 1.54396 69.7326 1.16655 69.9015 0.686206C69.9578 0.446034 70.0704 0.274482 70.2393 0.171551C70.4082 0.0686205 70.6053 0 70.8586 0C70.9994 0 71.112 0.102931 71.1965 0.343103C71.2528 0.583275 71.3091 0.926377 71.3091 1.40672C71.3091 2.3331 71.2246 3.43103 71.0276 4.73482C70.8305 6.03861 70.549 7.54826 70.1548 9.26377C70.1267 9.40102 70.0985 9.60688 70.0422 9.84705C69.9859 10.0872 69.9296 10.3617 69.8733 10.6362C69.8733 10.8077 69.8452 11.0136 69.817 11.2538C69.7889 11.4939 69.7607 11.7684 69.7044 12.0772C69.5918 12.6262 69.4792 13.1751 69.3947 13.7927C69.3103 14.4103 69.254 15.0279 69.1977 15.7141C69.1977 15.817 69.1977 15.9543 69.1695 16.1601C69.1414 16.366 69.1132 16.5719 69.0569 16.8463C69.0006 17.1208 68.9725 17.361 68.9725 17.5669C68.9443 17.7727 68.9443 17.9786 68.9443 18.1501C68.9725 18.4246 69.0006 18.6648 69.0288 18.8707C69.1414 19.0079 69.1977 19.1108 69.254 19.2138C69.3103 19.3167 69.3384 19.3853 69.3384 19.4196C69.2821 19.5912 69.1977 19.7627 69.0851 19.9686C68.9725 20.1744 68.8317 20.3803 68.6346 20.6205C68.4376 20.895 68.2687 21.0665 68.0716 21.2038C67.9027 21.341 67.7338 21.4096 67.5649 21.4096C67.4241 21.4096 67.2833 21.3067 67.1426 21.1008C67.0018 20.895 66.9455 20.6891 66.9455 20.4832V20.3803C66.9737 20.2774 67.0018 20.1744 67.03 20.0372C67.03 20.0029 67.03 19.9343 67.0018 19.9C66.9737 19.8313 66.9737 19.7627 66.9455 19.6941C66.9737 19.6598 66.9737 19.5912 67.03 19.4882C67.0863 19.3853 67.0863 19.2824 67.1144 19.1451C67.0863 19.1108 67.0863 19.0422 67.0581 18.9736C67.03 18.905 67.0018 18.8363 66.9737 18.7334C67.0018 18.6648 67.0018 18.5962 67.03 18.5275C67.0581 18.4589 67.0581 18.356 67.1144 18.2188C67.1144 18.1501 67.1144 18.0472 67.0863 17.9443C67.0863 17.8757 67.1144 17.7727 67.1144 17.6355C67.1426 17.4982 67.1426 17.361 67.1707 17.1551C67.1989 16.9836 67.227 16.8463 67.2552 16.7434C67.2833 16.6405 67.2833 16.5376 67.2833 16.5032C67.2833 16.4346 67.2833 16.366 67.2552 16.3317C67.227 16.2631 67.1989 16.2288 67.1707 16.2288C67.1144 16.2631 67.0581 16.3317 66.9737 16.4346C66.8892 16.5719 66.8048 16.7434 66.6921 16.9493C66.5795 17.2238 66.4669 17.4296 66.3543 17.5669C66.2699 17.7384 66.2136 17.8413 66.1854 17.8757L66.1291 18.0815C65.9039 18.4246 65.735 18.7334 65.5661 18.9736C65.3972 19.2138 65.2845 19.3853 65.2001 19.4539C65.0593 19.6255 64.8623 19.7627 64.6652 19.9C64.4681 20.0372 64.2148 20.1401 63.9051 20.2431C63.7643 20.2774 63.6236 20.346 63.4828 20.3803C63.1731 20.3803 62.9198 20.346 62.6946 20.2431C62.4693 20.1401 62.3004 20.0029 62.1878 19.8313C61.7092 19.1451 61.3433 18.3903 61.118 17.5326C60.9491 16.6405 60.8084 15.6798 60.8084 14.6505Z" fill="#040000"/>
<path id="Vector_9" d="M74.8844 20.4487C74.8844 20.586 74.8562 20.7232 74.7999 20.8261C74.7436 20.9634 74.6591 21.0663 74.5465 21.1692C74.5184 21.3065 74.4621 21.4094 74.4058 21.478C74.3495 21.5467 74.265 21.581 74.1806 21.581C73.8709 21.581 73.5894 21.4437 73.3642 21.1692C73.1389 20.8948 72.9419 20.483 72.8293 19.9341L72.9137 19.8311L72.8011 19.4537C72.8293 19.3165 72.8856 19.1449 72.9137 19.0077C72.9419 18.8705 72.97 18.7332 72.9982 18.5617C73.0263 18.3901 73.1108 18.2529 73.1952 18.1499C73.2797 18.047 73.3923 18.0127 73.5049 18.0127C73.702 18.0127 73.899 18.0813 74.068 18.2186C74.2369 18.3558 74.4058 18.5617 74.5465 18.8361C74.6873 19.0763 74.7718 19.3508 74.8281 19.591C74.8562 19.9341 74.8844 20.2086 74.8844 20.4487Z" fill="#040000"/>
<path id="Vector_10" d="M93.2958 17.1207C93.6055 17.9441 93.7744 18.3902 93.7744 18.4588C93.6055 18.6647 93.4084 18.8705 93.1269 19.145C92.8736 19.3852 92.5357 19.6597 92.1416 20.0028C91.7193 20.3459 91.3815 20.586 91.1 20.7576C90.8185 20.8948 90.5932 20.9978 90.4525 20.9978C90.1428 20.9978 89.8331 20.8948 89.5798 20.689C89.3264 20.4831 89.1012 20.1743 88.9323 19.7283C88.9041 19.6597 88.876 19.591 88.8478 19.5224C88.8197 19.4538 88.7915 19.3852 88.7352 19.3165C88.5381 19.0764 88.3411 18.8705 88.1722 18.6303C88.0877 18.5274 87.9188 18.2529 87.6654 17.8069C87.4121 17.3609 87.1024 16.7776 86.7364 16.0228C86.5675 15.6797 86.3986 15.3022 86.2015 14.9591C86.0045 14.5817 85.8074 14.2386 85.6103 13.8612C85.554 13.9641 85.4977 14.17 85.4414 14.5131C85.3851 14.8562 85.3007 15.3366 85.2444 15.9541C85.2444 16.0571 85.2162 16.1943 85.1599 16.4345C85.1036 16.6403 85.0754 16.8119 85.0754 16.9148C85.0754 16.9491 85.0754 17.0521 85.1036 17.155C85.1317 17.2579 85.1317 17.3609 85.1317 17.3952C85.1317 17.704 85.1036 18.15 85.0191 18.8019C84.9347 19.4195 84.9065 19.8998 84.9065 20.2086C84.9065 20.4488 84.8784 20.6546 84.7939 20.7576C84.7376 20.8605 84.625 20.9291 84.4561 20.9291C84.2872 20.8948 84.1746 20.8948 84.062 20.8262C83.9494 20.8605 83.8368 20.8948 83.7241 20.9291C83.6397 20.9291 83.5552 20.8605 83.5271 20.7233C83.4708 20.586 83.4426 20.3802 83.4426 20.1057C83.4426 20.0028 83.4708 19.8655 83.4989 19.6597C83.5271 19.4538 83.5552 19.2822 83.5552 19.1793C83.5552 19.1107 83.5552 18.9734 83.5271 18.8019C83.4989 18.6303 83.4989 18.5274 83.4989 18.4245C83.4989 18.3559 83.5271 18.1157 83.5552 17.704C83.5834 17.2922 83.6397 16.709 83.7241 15.9541C83.8086 15.165 83.8649 14.5817 83.9212 14.1014C83.9775 13.6554 84.0057 13.3809 84.0338 13.2779C84.062 13.2093 84.0901 13.1407 84.1183 13.0378C84.1464 12.9348 84.1746 12.8319 84.2027 12.6947L84.0338 11.8712C84.0901 11.4252 84.1746 10.7733 84.259 9.91553C84.3435 9.05778 84.4561 7.99416 84.5969 6.69037C84.6813 5.93554 84.7095 5.31796 84.7658 4.90623C84.7939 4.49451 84.8221 4.25434 84.8502 4.18572C84.9628 3.8083 85.1318 3.4652 85.357 3.19072C85.5822 2.91624 85.8637 2.74469 86.2297 2.60744C86.286 2.57313 86.3423 2.50451 86.3986 2.43589C86.4549 2.36727 86.5393 2.29865 86.652 2.19572C86.7646 2.16141 86.8772 2.33296 87.0461 2.71038C87.215 3.08779 87.2713 3.32796 87.2713 3.49951C87.2713 3.56813 87.2713 3.67106 87.2431 3.8083C87.215 3.94555 87.1868 4.08279 87.1587 4.25434C87.1024 4.4602 87.0742 4.63175 87.0179 4.76899C86.9898 4.90623 86.9616 5.00916 86.9616 5.04347C86.849 5.55813 86.7083 6.24433 86.5393 7.03347C86.3704 7.82261 86.2015 8.78329 86.0326 9.84691C86.0045 9.94984 86.0045 10.0528 85.9763 10.1557C85.9482 10.2929 85.92 10.4302 85.8637 10.6361C85.8356 10.8076 85.8074 10.9448 85.7792 11.0821C85.7511 11.2193 85.7511 11.3223 85.7511 11.4252C85.7511 11.5624 85.7792 11.6997 85.8637 11.8369C86.0889 11.734 86.483 11.3223 86.9898 10.6704C87.4965 9.98415 88.1722 9.02347 88.9886 7.82261C89.8331 6.58744 90.4525 5.55813 90.8748 4.76899C91.297 3.97986 91.4941 3.43089 91.4941 3.1221C91.4941 3.01917 91.4378 2.84762 91.3252 2.67607C91.2126 2.50451 91.1563 2.33296 91.1563 2.23003C91.1563 1.98986 91.2407 1.784 91.4378 1.61245C91.6349 1.4409 91.9164 1.30365 92.2824 1.23503C92.3668 1.23503 92.4794 1.1321 92.6483 0.994862C92.8173 0.82331 92.958 0.75469 93.0706 0.75469C93.1832 0.789 93.2958 0.789 93.4084 0.82331C93.5492 0.72038 93.6618 0.651759 93.8026 0.548828C93.9152 0.686069 93.9996 0.857621 94.0559 1.02917C94.1122 1.20072 94.1404 1.40659 94.1404 1.64676C94.1404 2.09279 94.0841 2.50451 93.9996 2.84762C93.9152 3.19072 93.7744 3.4652 93.5774 3.67106C93.5211 3.73968 93.4647 3.8083 93.4084 3.87693C93.3521 3.94555 93.2958 4.04848 93.2114 4.15141C93.0988 4.4602 92.9017 4.83761 92.7046 5.21503C92.4794 5.59244 92.2261 6.03847 91.9164 6.51882C91.2407 7.54812 90.6214 8.44019 90.0584 9.19502C89.4953 9.94984 88.9886 10.6017 88.5381 11.1164C88.3411 11.3223 88.2003 11.5281 88.1159 11.6997C88.0314 11.8712 87.9751 12.0085 87.9751 12.1114C88.1159 12.4202 88.2285 12.729 88.3411 13.0035C88.5381 13.5524 88.7352 14.1014 88.9323 14.616C89.1293 15.1307 89.3546 15.6797 89.5516 16.1943C89.8894 16.9834 90.2273 17.601 90.5088 18.0128C90.7903 18.4245 91.0718 18.596 91.3252 18.596C91.3533 18.596 91.4941 18.5274 91.6912 18.4245C91.8882 18.3216 92.1416 18.15 92.4794 17.9441C92.5639 17.8069 92.7046 17.6697 92.9299 17.4981C93.1832 17.2922 93.2958 17.1893 93.2958 17.1207Z" fill="#040000"/>
<path id="Vector_11" d="M93.2395 17.1206C93.4084 16.8804 93.6899 16.6059 94.0841 16.2971C94.45 15.9883 94.7316 15.7138 94.9286 15.508C95.0412 15.3364 95.2101 15.1306 95.379 14.8904C95.5761 14.6502 95.8013 14.3414 96.0547 14.0326C96.2236 13.8611 96.3644 13.7238 96.5051 13.6209C96.6459 13.518 96.8148 13.4837 96.9556 13.4837C97.1526 13.4837 97.2934 13.5523 97.406 13.6552C97.5186 13.7581 97.5749 13.964 97.5749 14.2042C97.5749 14.5816 97.4623 15.1649 97.2089 16.0226C96.9837 16.8461 96.843 17.498 96.843 17.9097C96.843 18.0126 96.8711 18.0812 96.8993 18.1156C96.9274 18.1499 96.9837 18.1842 97.0119 18.1842H97.0682C97.2089 18.0812 97.406 17.9097 97.6031 17.7381C97.8001 17.5666 98.0253 17.3264 98.2787 17.0862C98.4758 16.8461 98.7291 16.5716 99.0388 16.1942C99.3485 15.8168 99.6863 15.405 100.109 14.8904C100.278 14.7531 100.446 14.5473 100.643 14.3071C100.841 14.0669 101.066 13.7925 101.319 13.4494C101.432 13.2778 101.572 13.1406 101.741 13.0376C101.938 12.9347 102.164 12.9004 102.417 12.9004C102.586 12.9004 102.727 12.9347 102.811 13.0376C102.896 13.1063 102.952 13.2435 102.952 13.415C102.952 13.4837 102.952 13.5523 102.924 13.6209C102.924 13.6895 102.896 13.7581 102.896 13.7925C102.839 14.0669 102.755 14.4444 102.642 14.8561C102.53 15.2678 102.389 15.7481 102.248 16.3314C102.107 16.6745 101.967 17.1206 101.826 17.6009C101.685 18.0812 101.516 18.6302 101.347 19.2478L101.432 19.385C101.601 19.2821 101.854 19.0762 102.164 18.6988C102.502 18.3557 102.896 17.8754 103.402 17.2578L103.881 18.5959C103.825 18.6645 103.74 18.7674 103.656 18.8704C103.571 18.9733 103.459 19.1105 103.29 19.2135C102.445 19.934 101.741 20.6545 101.122 21.375C100.531 22.0955 100.052 22.7818 99.6863 23.5023C99.1514 24.5659 98.7291 25.4236 98.3632 26.0755C98.0253 26.7274 97.772 27.2078 97.6031 27.4823C97.0682 28.34 96.5333 28.9919 96.0547 29.4379C95.5761 29.8497 95.0975 30.0555 94.6189 30.0555C94.45 30.0555 94.3093 30.0212 94.253 29.9183C94.1685 29.8154 94.1404 29.7124 94.1404 29.5066C94.1404 29.4036 94.1685 29.3007 94.1967 29.1635C94.2248 29.0262 94.3093 28.8547 94.4219 28.7174C94.5626 28.4429 94.7034 28.2028 94.8442 27.9283L95.182 27.5509C95.2101 27.4136 95.2383 27.345 95.2383 27.2764C95.2664 27.2421 95.3227 27.1735 95.379 27.1048C95.4354 27.0362 95.5198 26.9676 95.5761 26.8647C95.6324 26.6931 95.7732 26.4186 96.0266 26.0069C96.2799 25.5952 96.5896 25.1148 97.04 24.463C97.3497 24.0169 97.6594 23.6052 97.9127 23.2278C98.1661 22.8847 98.4195 22.5759 98.5884 22.3014C98.6165 22.2328 98.6447 22.1299 98.701 22.0269C98.7291 21.924 98.7573 21.8211 98.7854 21.7181C98.8981 21.478 99.0107 21.1692 99.1233 20.8261C99.2359 20.483 99.4048 20.0712 99.5737 19.5909C99.6582 19.3164 99.7145 19.0076 99.7708 18.6302C99.8271 18.2871 99.8834 17.8754 99.9115 17.4637C99.8834 17.4293 99.8834 17.3607 99.8834 17.3264C99.8834 17.2578 99.8552 17.1892 99.8271 17.0519C99.6863 17.1549 99.5174 17.2578 99.3485 17.4293C99.1796 17.6009 99.0107 17.8068 98.8136 18.0469C98.5602 18.4587 98.2787 18.8018 98.0253 19.0762C97.772 19.3507 97.4905 19.5566 97.2371 19.6938C97.0682 20.1055 96.843 20.4143 96.5614 20.6202C96.2799 20.8261 95.9702 20.929 95.6324 20.929C95.3791 20.929 95.182 20.8604 95.0412 20.7231C94.9005 20.5859 94.8442 20.3457 94.8442 20.0369C94.8442 19.9683 94.8442 19.8997 94.8723 19.8311C94.8723 19.7281 94.9005 19.6595 94.9286 19.5223C94.9005 19.4193 94.8442 19.2821 94.816 19.1105C94.8442 18.939 94.8723 18.7674 94.9005 18.5616C94.9005 18.2871 94.8723 18.0469 94.8442 17.9097C94.816 17.7724 94.7597 17.7038 94.6752 17.7038L94.6189 17.7381C94.5345 17.8068 94.4219 17.944 94.253 18.0812C94.0841 18.2185 93.9151 18.4243 93.6899 18.6302C93.6618 18.493 93.6055 18.3557 93.5492 18.1842C93.4929 18.0126 93.4366 17.8068 93.3803 17.5666C93.3521 17.498 93.3521 17.4637 93.324 17.395C93.324 17.1892 93.2958 17.1549 93.2395 17.1206Z" fill="#040000"/>
<path id="Vector_12" d="M103.431 17.1207C103.487 17.052 103.543 16.9491 103.599 16.8462C103.656 16.7433 103.74 16.606 103.797 16.4688L104.697 15.7139C104.81 15.5424 104.979 15.3365 105.204 15.0964C105.429 14.8562 105.711 14.5474 106.049 14.17C106.077 14.0671 106.161 13.9298 106.246 13.7926C106.33 13.6553 106.443 13.5181 106.584 13.3808C106.696 13.2436 106.809 13.1407 106.921 13.0377C107.034 12.9348 107.147 12.8319 107.231 12.729C107.344 12.5917 107.456 12.4545 107.569 12.2829C107.682 12.1457 107.794 12.0084 107.907 11.8712C108.019 11.734 108.16 11.631 108.301 11.5624C108.442 11.4938 108.582 11.4595 108.723 11.4595C108.892 11.4595 109.033 11.4938 109.117 11.5281C109.202 11.5967 109.258 11.6653 109.258 11.734C109.174 11.9398 109.089 12.18 109.005 12.3859L109.089 12.5231C109.427 12.3515 109.708 12.2486 109.906 12.18C110.103 12.1114 110.215 12.0771 110.271 12.0771C110.835 12.0771 111.285 12.2829 111.566 12.729C111.848 13.1407 111.989 13.7926 111.989 14.6503C111.989 14.8219 111.961 14.9934 111.932 15.2336C111.904 15.4395 111.848 15.6796 111.792 15.9541C111.707 16.2286 111.623 16.4688 111.538 16.6746C111.454 16.8805 111.369 17.0177 111.285 17.0864C111.313 17.2236 111.341 17.2922 111.398 17.3608C111.426 17.4295 111.482 17.4295 111.538 17.4295C111.595 17.4295 111.679 17.3952 111.735 17.3608C111.792 17.3265 111.876 17.2579 111.989 17.155C112.073 17.3608 112.158 17.5667 112.214 17.8069C112.298 18.047 112.355 18.2529 112.439 18.4588C112.298 18.596 112.158 18.7676 112.017 18.9048C111.876 19.042 111.735 19.1793 111.595 19.3165C111.426 19.4881 111.257 19.6253 111.088 19.7282C110.919 19.7969 110.778 19.8655 110.609 19.8655C110.44 19.8655 110.271 19.7969 110.159 19.6939C110.046 19.591 109.934 19.4538 109.877 19.2479C109.68 19.5567 109.455 19.8655 109.174 20.1057C108.892 20.3458 108.582 20.586 108.245 20.7576C108.047 20.8605 107.879 20.9634 107.71 21.032C107.541 21.1007 107.4 21.135 107.259 21.135C107.231 21.135 107.147 21.1693 107.034 21.2036C106.921 21.2379 106.837 21.2722 106.752 21.2722C106.302 21.2722 105.908 21.032 105.542 20.586C105.176 20.14 105.007 19.6253 105.007 19.042C105.007 18.8019 105.063 18.4931 105.148 18.1157C105.232 17.7383 105.289 17.4981 105.289 17.4638C105.289 17.3952 105.26 17.3265 105.232 17.2922C105.204 17.2579 105.148 17.2236 105.092 17.2236C105.063 17.2236 104.951 17.2922 104.81 17.4295C104.669 17.5667 104.444 17.7726 104.162 18.047C104.134 18.0814 104.106 18.15 104.078 18.2186C104.05 18.2872 103.994 18.3901 103.937 18.4931C103.881 18.2872 103.797 18.047 103.712 17.8412C103.628 17.5667 103.543 17.3265 103.431 17.1207ZM109.117 14.4788C109.089 14.4788 109.033 14.5474 108.948 14.616C108.864 14.7189 108.808 14.8219 108.723 14.9591C108.611 15.165 108.498 15.4052 108.357 15.6796C108.273 15.7826 108.188 15.8855 108.076 15.9541C107.991 16.0227 107.879 16.057 107.738 16.0914C107.653 16.0914 107.569 16.1943 107.484 16.3658C107.4 16.5374 107.316 16.8119 107.231 17.1207C107.147 17.4295 107.09 17.6696 107.034 17.8755C107.006 18.0814 106.978 18.2529 106.978 18.3901C106.978 18.6646 107.034 18.8705 107.147 19.0077C107.259 19.145 107.428 19.2136 107.653 19.2136C108.019 19.2136 108.357 19.0764 108.639 18.8362C108.948 18.596 109.23 18.2186 109.483 17.7383C109.596 17.5667 109.737 17.3952 109.849 17.2236C109.906 17.155 109.962 17.0864 109.99 16.9491C110.018 16.8119 110.074 16.6746 110.103 16.4688L110.328 15.6453C110.243 15.3708 110.187 15.1307 110.131 14.9591C110.074 14.7876 110.018 14.6846 109.934 14.6503C109.906 14.616 109.821 14.5817 109.68 14.5474C109.54 14.5131 109.371 14.5474 109.117 14.4788Z" fill="#040000"/>
<path id="Vector_13" d="M111.961 17.1205C111.989 17.0862 112.017 17.0519 112.045 17.0176C112.073 16.9833 112.073 16.9147 112.073 16.8804C112.214 16.7431 112.355 16.5716 112.524 16.3314C112.693 16.0912 112.89 15.8167 113.087 15.508C113.256 15.2335 113.424 14.9247 113.622 14.6502C113.819 14.3757 114.016 14.0669 114.213 13.7924C114.382 13.518 114.551 13.2092 114.719 12.9004C114.888 12.5916 115.057 12.2828 115.254 11.974C115.564 11.8024 115.817 11.6652 115.986 11.5966C116.155 11.528 116.268 11.4937 116.352 11.4937C116.465 11.4937 116.549 11.528 116.634 11.6309C116.69 11.7338 116.718 11.8368 116.718 12.0426C116.718 12.1112 116.718 12.1799 116.69 12.2828C116.662 12.3857 116.634 12.4887 116.606 12.6259C116.549 12.8318 116.493 13.0033 116.409 13.2092C116.352 13.5523 116.268 13.8954 116.183 14.2042C116.099 14.5473 116.014 14.8561 115.93 15.1992C115.846 15.6109 115.789 15.9883 115.761 16.3314C115.705 16.6745 115.705 16.9833 115.705 17.2921C115.705 17.8411 115.733 18.2185 115.761 18.4929C115.817 18.7674 115.874 18.8704 115.93 18.8361C116.014 18.7674 116.099 18.6988 116.212 18.6302C116.324 18.5616 116.465 18.4586 116.634 18.3557C116.775 18.1842 116.943 17.944 117.112 17.6695C117.281 17.395 117.507 17.0862 117.76 16.7088C117.901 16.4343 118.041 16.1942 118.182 15.9197C118.238 15.8511 118.295 15.7481 118.379 15.6452C118.464 15.5423 118.52 15.4393 118.576 15.3364C118.717 14.8904 118.886 14.5473 119.083 14.3071C119.28 14.0669 119.477 13.964 119.702 13.964C119.899 13.964 120.068 13.9983 120.181 14.0669C120.294 14.1355 120.378 14.2385 120.434 14.3414C120.462 14.41 120.491 14.513 120.491 14.6845C120.519 14.8561 120.519 15.0619 120.519 15.3364C120.519 15.4393 120.547 15.6109 120.575 15.7824C120.603 15.9883 120.631 16.1255 120.631 16.2285C120.631 16.5716 120.688 16.8461 120.772 17.0176C120.885 17.1892 121.026 17.2921 121.251 17.2921C121.307 17.2921 121.391 17.2921 121.476 17.2578C121.56 17.2235 121.645 17.1892 121.729 17.1548L122.208 18.4929C121.729 18.8361 121.363 19.1105 121.054 19.2821C120.744 19.4536 120.519 19.5566 120.378 19.5566C119.984 19.5566 119.674 19.4193 119.421 19.1792C119.167 18.939 118.999 18.5616 118.858 18.0812C118.83 17.9783 118.802 17.8411 118.745 17.7381C118.689 17.6352 118.633 17.498 118.548 17.395C118.464 17.498 118.407 17.6009 118.295 17.7381C118.182 17.8754 118.098 18.0126 118.013 18.1498C117.788 18.4586 117.591 18.7674 117.366 19.0762C117.141 19.385 116.943 19.6938 116.718 19.9683C116.437 20.3457 116.155 20.6545 115.874 20.826C115.592 20.9976 115.339 21.1005 115.085 21.1005C114.719 21.1005 114.438 20.9633 114.213 20.6888C113.988 20.4143 113.847 20.0369 113.79 19.5223C113.706 19.0076 113.678 18.6302 113.65 18.3557C113.622 18.0812 113.622 17.9097 113.65 17.8411C113.622 17.5666 113.622 17.3607 113.593 17.2235C113.565 17.0862 113.537 17.0176 113.481 17.0176L113.396 17.0519L112.721 17.9097C112.693 17.9783 112.664 18.0469 112.608 18.1498C112.552 18.2528 112.467 18.3557 112.383 18.5273C112.355 18.39 112.298 18.2185 112.214 18.0126C112.186 17.7038 112.073 17.4293 111.961 17.1205Z" fill="#040000"/>
<path id="Vector_14" d="M121.758 17.1205C121.786 17.0519 121.842 16.9833 121.87 16.9147C121.898 16.8461 121.983 16.7431 122.039 16.6059C122.123 16.5373 122.208 16.4343 122.349 16.2628C122.461 16.1255 122.602 15.954 122.771 15.7481C122.912 15.5423 123.081 15.3364 123.278 15.0276C123.475 14.7531 123.728 14.41 124.01 13.9983C124.122 13.8268 124.291 13.6209 124.488 13.3807C124.685 13.1405 124.911 12.8318 125.164 12.4543C125.389 12.1455 125.614 11.9054 125.868 11.7338C126.121 11.5966 126.374 11.4937 126.656 11.4937C126.937 11.4937 127.135 11.5966 127.275 11.8024C127.416 12.0083 127.472 12.3171 127.472 12.7288C127.472 12.9347 127.416 13.3807 127.275 13.9983C127.135 14.6159 126.937 15.4393 126.656 16.4686C126.572 16.6745 126.515 16.8461 126.459 17.0176C126.403 17.1548 126.374 17.2578 126.374 17.3607C126.346 17.4636 126.346 17.5323 126.346 17.5666C126.346 17.6352 126.374 17.7038 126.431 17.7724C126.459 17.7381 126.515 17.7038 126.543 17.6695C126.572 17.6352 126.628 17.5666 126.656 17.498C126.712 17.3607 126.825 17.1892 126.937 17.0519C127.078 16.8804 127.219 16.7088 127.416 16.5373C127.501 16.3657 127.585 16.2285 127.698 16.0569C127.81 15.8854 127.951 15.7481 128.092 15.6109C128.12 15.5766 128.176 15.508 128.204 15.4393C128.261 15.3364 128.317 15.2678 128.373 15.1649C128.486 15.0276 128.598 14.9247 128.739 14.7874C128.88 14.6502 129.049 14.513 129.246 14.3757C129.471 14.2385 129.64 14.1355 129.809 14.0669C129.978 13.9983 130.119 13.964 130.259 13.964C130.513 13.964 130.71 14.0326 130.907 14.1699C131.104 14.3071 131.245 14.5473 131.386 14.8561C131.554 15.4393 131.695 15.9883 131.836 16.503C131.92 16.8117 132.005 17.0176 132.117 17.1548C132.23 17.2921 132.343 17.3607 132.483 17.3607C132.596 17.3607 132.68 17.3264 132.765 17.2921C132.849 17.2578 132.934 17.1892 132.99 17.0862L133.469 18.4243C133.328 18.5616 133.187 18.6988 133.046 18.8361C132.906 18.9733 132.765 19.1105 132.624 19.2478C132.455 19.4536 132.286 19.5909 132.117 19.6595C131.949 19.7281 131.808 19.7967 131.639 19.7967C131.47 19.7967 131.273 19.7624 131.132 19.6595C130.963 19.5566 130.822 19.4193 130.71 19.2135C130.654 19.1448 130.569 19.0076 130.485 18.8017C130.4 18.5959 130.288 18.3557 130.147 18.0469C130.034 17.9097 129.922 17.7724 129.809 17.5666C129.696 17.3607 129.527 17.1205 129.359 16.8461L129.246 16.8117C129.105 16.8804 128.936 16.949 128.796 17.0862C128.655 17.1892 128.486 17.3607 128.317 17.5323C127.951 17.9097 127.698 18.1498 127.557 18.2528C127.388 18.3557 127.303 18.4586 127.247 18.5959C127.135 18.8361 126.937 19.1105 126.684 19.4879C126.431 19.8654 126.093 20.2771 125.671 20.7917C125.558 20.929 125.474 21.0319 125.361 21.1692C125.248 21.2721 125.164 21.4093 125.051 21.5123C124.939 21.6152 124.826 21.6838 124.713 21.7181C124.573 21.7524 124.432 21.7867 124.291 21.7867C123.982 21.7867 123.813 21.6495 123.784 21.375C123.756 21.1005 123.728 20.8604 123.7 20.5859C123.813 20.1742 123.953 19.6938 124.094 19.0762C124.235 18.4586 124.404 17.7724 124.601 16.949C124.601 16.9147 124.601 16.8461 124.629 16.7431C124.657 16.6745 124.685 16.5373 124.742 16.4343C124.77 16.2971 124.798 16.1942 124.826 16.1255C124.854 16.0226 124.854 15.954 124.854 15.8854C124.854 15.8167 124.826 15.7824 124.798 15.7138C124.77 15.6795 124.685 15.6452 124.601 15.6452C124.516 15.6452 124.432 15.7138 124.291 15.8167C124.15 15.9197 124.01 16.1255 123.813 16.3657C123.587 16.6402 123.418 16.8804 123.278 17.0519C123.137 17.2235 123.052 17.3264 122.996 17.3264C122.912 17.395 122.827 17.498 122.715 17.6009C122.602 17.7381 122.489 17.8754 122.349 18.0126C122.321 18.0469 122.321 18.1155 122.264 18.1842C122.236 18.2528 122.18 18.3557 122.123 18.4586C122.095 18.3214 122.039 18.1498 121.955 17.944C121.983 17.7038 121.898 17.4293 121.758 17.1205Z" fill="#040000"/>
<path id="Vector_15" d="M133.046 17.1206C133.103 17.0519 133.159 16.949 133.244 16.8118C133.328 16.6745 133.412 16.503 133.525 16.3314C133.638 16.2285 133.75 16.0913 133.891 15.9197C134.032 15.7482 134.173 15.508 134.341 15.2678C134.398 15.0963 134.482 14.9247 134.567 14.7188C134.651 14.513 134.764 14.3071 134.876 14.0326C134.933 13.7582 135.045 13.4837 135.214 13.1406C135.383 12.7975 135.636 12.4544 135.946 12.0426C136.368 11.4594 136.819 10.8418 137.297 10.1899C137.551 9.74386 137.804 9.43506 138.086 9.2292C138.367 9.02334 138.677 8.92041 139.015 8.92041C139.24 8.92041 139.409 9.02334 139.521 9.26351C139.634 9.50368 139.69 9.84679 139.69 10.3271C139.69 10.4987 139.606 10.7732 139.409 11.1163C139.212 11.4937 138.93 11.9397 138.536 12.523C138.283 12.8661 138.029 13.2435 137.776 13.5866C137.523 13.9297 137.241 14.3071 136.988 14.6502C136.875 14.7875 136.734 14.9247 136.622 15.0963C136.481 15.2678 136.34 15.4394 136.199 15.6109C136.143 15.8168 136.115 16.0226 136.059 16.2971C136.059 16.6745 136.087 16.9833 136.115 17.2578C136.143 17.5323 136.199 17.7725 136.284 17.944C136.312 18.0126 136.397 18.1499 136.537 18.39C136.678 18.6302 136.847 18.939 137.072 19.3164C137.128 19.4194 137.185 19.5223 137.269 19.5909C137.354 19.6938 137.438 19.7968 137.551 19.8654C137.663 19.7968 137.889 19.5566 138.226 19.1106C138.564 18.6645 139.015 18.0126 139.606 17.1892L140.056 18.5273C140 18.5959 139.887 18.7675 139.747 19.0076C139.606 19.2478 139.409 19.5566 139.184 19.934C138.93 20.3457 138.677 20.7575 138.423 21.2378C138.423 21.3407 138.452 21.4437 138.536 21.5809C138.621 21.7181 138.705 21.8554 138.818 21.9926C139.015 22.2671 139.184 22.6445 139.352 23.1249C139.493 23.5709 139.606 24.1542 139.69 24.8061C139.69 24.8404 139.662 24.9433 139.662 25.0462C139.662 25.1492 139.634 25.2864 139.634 25.3893C139.55 26.4873 138.987 27.5852 137.973 28.6831C136.96 29.7811 136.002 30.33 135.102 30.33C134.679 30.33 134.341 30.2614 134.116 30.1242C133.863 29.9869 133.694 29.8154 133.581 29.5409C133.553 29.4036 133.497 29.1635 133.497 28.8204C133.469 28.443 133.469 27.9626 133.469 27.3793C133.469 27.3107 133.497 27.2078 133.525 27.0362C133.581 26.8647 133.638 26.6245 133.75 26.35C133.807 26.1442 133.891 25.9726 133.975 25.7668C134.06 25.5609 134.173 25.355 134.285 25.1149C134.398 24.909 134.51 24.7031 134.623 24.5316C134.736 24.3257 134.848 24.1542 134.961 23.9483C135.214 23.6052 135.439 23.3307 135.636 23.0562C135.777 22.8847 135.89 22.7131 135.974 22.5416C136.059 22.37 136.087 22.2328 136.087 22.0956C135.833 21.6495 135.552 21.2035 135.299 20.7918C135.017 20.3457 134.792 19.934 134.623 19.488C134.454 19.0419 134.341 18.6302 134.285 18.1499C134.285 18.0813 134.257 18.0126 134.201 17.8754C134.032 18.0813 133.835 18.2871 133.666 18.5273C133.638 18.39 133.581 18.2185 133.497 18.0126C133.272 17.7038 133.159 17.4294 133.046 17.1206ZM136.903 23.1592C136.847 23.1592 136.734 23.2964 136.565 23.5709C136.397 23.8454 136.171 24.2228 135.89 24.7718C135.721 25.0805 135.552 25.4237 135.383 25.7324C135.214 26.0412 135.045 26.3843 134.876 26.6931C134.82 26.7961 134.736 27.0362 134.595 27.448C134.482 27.8254 134.426 28.0999 134.426 28.2028C134.426 28.3743 134.454 28.5116 134.539 28.6145C134.623 28.7174 134.736 28.7517 134.933 28.7517C135.524 28.7517 136.171 28.34 136.791 27.5509C137.438 26.7618 137.748 25.9726 137.748 25.2521C137.748 25.1149 137.72 24.909 137.663 24.7031C137.607 24.4973 137.551 24.2571 137.466 24.0169C137.354 23.7425 137.269 23.5366 137.185 23.3993C137.1 23.2278 137.016 23.1592 136.903 23.1592Z" fill="#040000"/>
</g>
</svg>
